<mxfile host="65bd71144e">
    <diagram id="hbC4uzHOZqBioNfB1Z3J" name="Page-1">
        <mxGraphModel dx="1130" dy="569" grid="1" gridSize="10" guides="1" tooltips="1" connect="1" arrows="1" fold="1" page="1" pageScale="1" pageWidth="850" pageHeight="1100" math="0" shadow="0">
            <root>
                <mxCell id="0"/>
                <mxCell id="1" parent="0"/>
                <mxCell id="4" value="SLAAC Function" style="text;html=1;align=center;verticalAlign=middle;whiteSpace=wrap;rounded=0;fillColor=#0050ef;fontColor=#ffffff;strokeColor=#001DBC;" parent="1" vertex="1">
                    <mxGeometry x="260" y="50" width="310" height="30" as="geometry"/>
                </mxCell>
                <mxCell id="7" value="" style="points=[[0.03,0.03,0],[0.5,0,0],[0.97,0.03,0],[1,0.4,0],[0.97,0.745,0],[0.5,1,0],[0.03,0.745,0],[0,0.4,0]];verticalLabelPosition=bottom;sketch=0;html=1;verticalAlign=top;aspect=fixed;align=center;pointerEvents=1;shape=mxgraph.cisco19.workstation;fillColor=#6a00ff;strokeColor=#3700CC;fontColor=#ffffff;" parent="1" vertex="1">
                    <mxGeometry x="520" y="135" width="62.5" height="50" as="geometry"/>
                </mxCell>
                <mxCell id="9" value="" style="shape=image;verticalLabelPosition=bottom;labelBackgroundColor=default;verticalAlign=top;aspect=fixed;imageAspect=0;image=data:image/svg+xml,PHN2ZyB4bWxucz0iaHR0cDovL3d3dy53My5vcmcvMjAwMC9zdmciIHZpZXdCb3g9IjAgMCAxNiAxNiIgY2xhc3M9ImJpIGJpLXJvdXRlciIgZmlsbD0iY3VycmVudENvbG9yIiBoZWlnaHQ9IjE2IiB3aWR0aD0iMTYiIHN0eWxlPSJjb2xvcjogYmx1ZSI+IDxwYXRoIGZpbGw9ImJsdWUiIGQ9Ik01LjUyNSAzLjAyNWEzLjUgMy41IDAgMCAxIDQuOTUgMCAuNS41IDAgMSAwIC43MDctLjcwNyA0LjUgNC41IDAgMCAwLTYuMzY0IDAgLjUuNSAwIDAgMCAuNzA3LjcwN1oiLz4gPHBhdGggZmlsbD0iYmx1ZSIgZD0iTTYuOTQgNC40NGExLjUgMS41IDAgMCAxIDIuMTIgMCAuNS41IDAgMCAwIC43MDgtLjcwOCAyLjUgMi41IDAgMCAwLTMuNTM2IDAgLjUuNSAwIDAgMCAuNzA3LjcwN1pNMi41IDExYS41LjUgMCAxIDEgMC0xIC41LjUgMCAwIDEgMCAxWm00LjUtLjVhLjUuNSAwIDEgMCAxIDAgLjUuNSAwIDAgMC0xIDBabTIuNS41YS41LjUgMCAxIDEgMC0xIC41LjUgMCAwIDEgMCAxWm0xLjUtLjVhLjUuNSAwIDEgMCAxIDAgLjUuNSAwIDAgMC0xIDBabTIgMGEuNS41IDAgMSAwIDEgMCAuNS41IDAgMCAwLTEgMFoiLz4gPHBhdGggZmlsbD0iYmx1ZSIgZD0iTTIuOTc0IDIuMzQyYS41LjUgMCAxIDAtLjk0OC4zMTZMMy44MDYgOEgxLjVBMS41IDEuNSAwIDAgMCAwIDkuNXYyQTEuNSAxLjUgMCAwIDAgMS41IDEzSDJhLjUuNSAwIDAgMCAuNS41aDJBLjUuNSAwIDAgMCA1IDEzaDZhLjUuNSAwIDAgMCAuNS41aDJhLjUuNSAwIDAgMCAuNS0uNWguNWExLjUgMS41IDAgMCAwIDEuNS0xLjV2LTJBMS41IDEuNSAwIDAgMCAxNC41IDhoLTIuMzA2bDEuNzgtNS4zNDJhLjUuNSAwIDEgMC0uOTQ4LS4zMTZMMTEuMTQgOEg0Ljg2TDIuOTc0IDIuMzQyWk0xNC41IDlhLjUuNSAwIDAgMSAuNS41djJhLjUuNSAwIDAgMS0uNS41aC0xM2EuNS41IDAgMCAxLS41LS41di0yYS41LjUgMCAwIDEgLjUtLjVoMTNaIi8+IDxwYXRoIGZpbGw9ImJsdWUiIGQ9Ik04LjUgNS41YS41LjUgMCAxIDEtMSAwIC41LjUgMCAwIDEgMSAwWiIvPiA8L3N2Zz4=;" parent="1" vertex="1">
                    <mxGeometry x="240" y="130" width="60" height="60" as="geometry"/>
                </mxCell>
                <mxCell id="12" value="" style="rounded=1;whiteSpace=wrap;html=1;labelBackgroundColor=default;strokeColor=#0000FF;fontFamily=Helvetica;fontSize=12;fontColor=default;fillColor=none;dashed=1;dashPattern=8 8;strokeWidth=2;" parent="1" vertex="1">
                    <mxGeometry x="210" y="110" width="122" height="220" as="geometry"/>
                </mxCell>
                <mxCell id="13" value="" style="rounded=1;whiteSpace=wrap;html=1;labelBackgroundColor=default;strokeColor=#0000FF;fontFamily=Helvetica;fontSize=12;fontColor=default;fillColor=none;dashed=1;dashPattern=8 8;strokeWidth=2;" parent="1" vertex="1">
                    <mxGeometry x="483.25" y="110" width="146.75" height="220" as="geometry"/>
                </mxCell>
                <mxCell id="14" value="" style="endArrow=none;dashed=1;html=1;fontFamily=Helvetica;fontSize=12;fontColor=default;strokeWidth=4;fillColor=#6a00ff;strokeColor=#3333FF;" parent="1" edge="1">
                    <mxGeometry width="50" height="50" relative="1" as="geometry">
                        <mxPoint x="306" y="167" as="sourcePoint"/>
                        <mxPoint x="516" y="167" as="targetPoint"/>
                    </mxGeometry>
                </mxCell>
                <mxCell id="17" value="" style="endArrow=classic;html=1;strokeWidth=1;fontFamily=Helvetica;fontSize=12;fontColor=default;strokeColor=#0000FF;" parent="1" edge="1">
                    <mxGeometry width="50" height="50" relative="1" as="geometry">
                        <mxPoint x="500" y="220" as="sourcePoint"/>
                        <mxPoint x="310" y="220" as="targetPoint"/>
                    </mxGeometry>
                </mxCell>
                <mxCell id="19" value="Client" style="text;html=1;align=center;verticalAlign=middle;whiteSpace=wrap;rounded=0;labelBackgroundColor=none;fontFamily=Lucida Console;fontSize=12;strokeWidth=1;fontStyle=1;fontColor=#3333FF;" parent="1" vertex="1">
                    <mxGeometry x="522" y="184" width="60" height="30" as="geometry"/>
                </mxCell>
                <mxCell id="21" value="&lt;font style=&quot;font-size: 14px;&quot;&gt;G&lt;/font&gt;0/0" style="text;html=1;strokeColor=none;fillColor=none;align=center;verticalAlign=middle;whiteSpace=wrap;rounded=0;labelBackgroundColor=none;fontFamily=Lucida Console;fontSize=12;fontColor=#3333FF;" parent="1" vertex="1">
                    <mxGeometry x="294" y="170" width="40" height="20" as="geometry"/>
                </mxCell>
                <mxCell id="22" value="RS massage (request)" style="text;html=1;strokeColor=none;fillColor=none;align=center;verticalAlign=middle;whiteSpace=wrap;rounded=0;labelBackgroundColor=none;fontFamily=Lucida Console;fontSize=12;fontColor=#3333FF;" parent="1" vertex="1">
                    <mxGeometry x="334" y="194" width="151.25" height="30" as="geometry"/>
                </mxCell>
                <mxCell id="23" value="" style="verticalLabelPosition=bottom;align=center;labelBackgroundColor=none;verticalAlign=top;strokeWidth=2;strokeColor=#3333FF;shadow=0;dashed=0;shape=mxgraph.ios7.icons.mail;fontFamily=Lucida Console;fontSize=12;fontColor=#3333FF;fillColor=none;" parent="1" vertex="1">
                    <mxGeometry x="500" y="212.75" width="30" height="16.5" as="geometry"/>
                </mxCell>
                <mxCell id="26" value="" style="endArrow=classic;html=1;strokeWidth=1;fontFamily=Helvetica;fontSize=12;fontColor=default;strokeColor=#0000FF;" parent="1" edge="1">
                    <mxGeometry width="50" height="50" relative="1" as="geometry">
                        <mxPoint x="321" y="279" as="sourcePoint"/>
                        <mxPoint x="511" y="279" as="targetPoint"/>
                    </mxGeometry>
                </mxCell>
                <mxCell id="28" value="" style="verticalLabelPosition=bottom;align=center;labelBackgroundColor=none;verticalAlign=top;strokeWidth=2;strokeColor=#3333FF;shadow=0;dashed=0;shape=mxgraph.ios7.icons.mail;fontFamily=Lucida Console;fontSize=12;fontColor=#3333FF;fillColor=none;" parent="1" vertex="1">
                    <mxGeometry x="290" y="270" width="30" height="16.5" as="geometry"/>
                </mxCell>
                <mxCell id="29" value="&lt;b&gt;RS&lt;/b&gt;" style="text;html=1;strokeColor=none;fillColor=none;align=left;verticalAlign=middle;whiteSpace=wrap;rounded=0;labelBackgroundColor=none;fontFamily=Lucida Console;fontSize=12;fontColor=#3333FF;" parent="1" vertex="1">
                    <mxGeometry x="534" y="212" width="15" height="20" as="geometry"/>
                </mxCell>
                <mxCell id="48" value="&lt;div style=&quot;&quot;&gt;&lt;div style=&quot;&quot;&gt;RA massage (announcement)&lt;/div&gt;&lt;/div&gt;" style="text;html=1;strokeColor=none;fillColor=none;align=center;verticalAlign=middle;whiteSpace=wrap;rounded=0;labelBackgroundColor=none;fontFamily=Lucida Console;fontSize=10;fontColor=#3333FF;" parent="1" vertex="1">
                    <mxGeometry x="330.75" y="267" width="161.25" height="10" as="geometry"/>
                </mxCell>
                <mxCell id="49" value="&lt;div style=&quot;&quot;&gt;&lt;div style=&quot;&quot;&gt;&lt;div style=&quot;&quot;&gt;M flag=0 / O flag=0&lt;/div&gt;&lt;/div&gt;&lt;/div&gt;" style="text;html=1;strokeColor=none;fillColor=none;align=center;verticalAlign=middle;whiteSpace=wrap;rounded=0;labelBackgroundColor=none;fontFamily=Lucida Console;fontSize=10;fontColor=#3333FF;" parent="1" vertex="1">
                    <mxGeometry x="345" y="280.5" width="125.25" height="13.5" as="geometry"/>
                </mxCell>
                <mxCell id="51" value="" style="shape=callout;whiteSpace=wrap;html=1;perimeter=calloutPerimeter;fontSize=9;rotation=-180;position2=0.67;rounded=1;fillColor=#3333FF;" parent="1" vertex="1">
                    <mxGeometry x="540" y="200" width="120" height="174" as="geometry"/>
                </mxCell>
                <mxCell id="52" value="&lt;div&gt;RA message&amp;nbsp;&lt;span style=&quot;background-color: initial;&quot;&gt;contains all&amp;nbsp;&lt;/span&gt;&lt;span style=&quot;background-color: initial;&quot;&gt;used by me&lt;/span&gt;&lt;/div&gt;&lt;div&gt;information about&lt;/div&gt;&lt;div&gt;addressing.&lt;/div&gt;&lt;div&gt;Additionally&lt;/div&gt;&lt;div&gt;affordable&lt;/div&gt;&lt;div&gt;information from&lt;/div&gt;&lt;div&gt;DHCPv6 server&lt;/div&gt;&lt;div&gt;absent&lt;/div&gt;" style="text;html=1;strokeColor=none;fillColor=none;align=center;verticalAlign=middle;whiteSpace=wrap;rounded=0;fontSize=9;fontColor=#FFFFFF;" parent="1" vertex="1">
                    <mxGeometry x="549" y="224" width="100" height="164" as="geometry"/>
                </mxCell>
            </root>
        </mxGraphModel>
    </diagram>
</mxfile>